PathFileType	4	(x/y/z)	S05_P20_T07
DataRate	CameraRate	NumFrames	NumMarkers	Units	OrigDataRate	OrigDataStartFrame	OrigNumFrames
240	240	8	50	mm	240	1	376
Frame#	Time	Sternum			R.Acromium			L.Acromium			Top.Head			R.ASIS			L.ASIS			R.PSIS			L.PSIS			R.Great.Tro			L.Great.Tro			R.Iliac.Crest			L.Iliac.Crest			V.Sacral			R.Thigh.Upper.Post			R.Thigh.Lower.Ant			R.Thigh.Lower.Post			R.Thigh.Upper.Ant			R.Knee.Lat			R.Knee.Med			R.Shank.Upper.Post			R.Shank.Lower.Ant			R.Shank.Lower.Post			R.Shank.Upper.Ant			R.Ankle.Lat			R.Ankle.Med			R.Heel.Upper			R.Heel.Med			R.Heel.Lat			R.Toe.Lat			R.Toe.Med			R.Toe.Tip			L.Thigh.Upper.Post			L.Thigh.Lower.Ant			L.Thigh.Lower.Post			L.Thigh.Upper.Ant			L.Knee.Lat			L.Shank.Upper.Post			L.Shank.Lower.Ant			L.Shank.Lower.Post			L.Shank.Upper.Ant			L.Ankle.Lat			L.Ankle.Med			L.Heel.Upper			L.Heel.Med			L.Heel.Lat			L.Toe.Lat			L.Toe.Med			L.Toe.Tip			Cervical.Spine			Back			
		X1	Y1	Z1	X2	Y2	Z2	X3	Y3	Z3	X4	Y4	Z4	X5	Y5	Z5	X6	Y6	Z6	X7	Y7	Z7	X8	Y8	Z8	X9	Y9	Z9	X10	Y10	Z10	X11	Y11	Z11	X12	Y12	Z12	X13	Y13	Z13	X14	Y14	Z14	X15	Y15	Z15	X16	Y16	Z16	X17	Y17	Z17	X18	Y18	Z18	X19	Y19	Z19	X20	Y20	Z20	X21	Y21	Z21	X22	Y22	Z22	X23	Y23	Z23	X24	Y24	Z24	X25	Y25	Z25	X26	Y26	Z26	X27	Y27	Z27	X28	Y28	Z28	X29	Y29	Z29	X30	Y30	Z30	X31	Y31	Z31	X32	Y32	Z32	X33	Y33	Z33	X34	Y34	Z34	X35	Y35	Z35	X36	Y36	Z36	X37	Y37	Z37	X38	Y38	Z38	X39	Y39	Z39	X40	Y40	Z40	X41	Y41	Z41	X42	Y42	Z42	X43	Y43	Z43	X44	Y44	Z44	X45	Y45	Z45	X46	Y46	Z46	X47	Y47	Z47	X48	Y48	Z48	X49	Y49	Z49	X50	Y50	Z50	

1	0	NaN	NaN	NaN	-1471.3	1506	500.64	-1493.3	1520.1	170.01	-1490.2	1807.6	307.31	NaN	NaN	NaN	NaN	NaN	NaN	-1674.2	1017.4	373.98	-1670.5	1014.4	281.42	-1575.9	923.97	533.42	-1534.6	919.87	141.63	-1568.2	1084.6	507.56	-1552.4	1074.6	172.59	-1683.4	981.97	341.71	-1562.9	697.26	515.55	NaN	NaN	NaN	-1590.8	613.79	492.25	NaN	NaN	NaN	NaN	NaN	NaN	NaN	NaN	NaN	-1782.1	313.64	458.74	-1740.7	230.26	455.69	-1803.2	242.45	439.99	NaN	NaN	NaN	-1781	134.35	436.12	-1763.2	158.63	348.18	-1859.9	90.221	373.25	-1849.1	55.241	347.95	-1855	62.912	411.48	-1694.2	42.085	476.03	-1650.3	43.248	358.04	-1588.4	57.169	407.07	-1452.4	689.99	147.07	-1353.7	647.44	178.49	-1412.5	604.57	164.66	-1384.7	731.85	161.78	-1367.8	528.69	174.45	-1354	319.35	173.23	-1270.4	291.57	175	-1327.1	252.42	190.99	-1297.9	356.21	162.84	-1244.3	133.17	197.85	-1216.4	163.96	281.48	NaN	NaN	NaN	-1253	48.138	285.92	-1266.4	40.59	227.42	-1100.5	106.47	157.44	-1076.9	131.36	271.42	-1028	166.12	212.2	-1534.9	1553	343.37	-1665.1	1284.8	349.03
2	0.0041667	NaN	NaN	NaN	-1466.1	1505.4	499.8	-1488.1	1519	169.11	-1485.1	1806.7	306	NaN	NaN	NaN	NaN	NaN	NaN	-1668.9	1016.5	373.68	-1665	1013.5	281.12	-1570.7	923.15	533.18	-1528.6	919.09	141.63	-1563.1	1083.8	507.35	-1546.8	1073.7	172.33	-1678	981.08	341.38	-1557.8	696.43	515.34	NaN	NaN	NaN	-1585.5	612.95	492.16	NaN	NaN	NaN	NaN	NaN	NaN	NaN	NaN	NaN	-1778.5	314.33	458.36	-1737.7	230.73	455.46	-1800	243.22	439.45	NaN	NaN	NaN	-1779.7	135.23	435.9	-1761.7	159.47	347.96	-1859.3	92.057	372.99	-1848.7	57.005	347.65	-1854.6	64.734	411.19	-1694.2	42.099	475.97	-1650.2	43.116	358.04	-1588.2	56.773	407.18	-1446.2	689.53	147.63	-1347.4	647.04	178.77	-1406.3	604.14	165.25	-1378.5	731.38	161.92	-1361.7	528.07	174.81	-1350.6	318.75	173.39	-1267.2	289.75	175.44	-1324.6	251.37	191.09	-1293.9	354.74	163.31	-1243.6	131.43	197.99	-1215.4	161.53	281.79	NaN	NaN	NaN	-1253.4	46.674	285.94	-1266.6	39.572	227.22	-1100	103.06	157.98	-1076.3	127.32	272.06	-1026.9	161.71	213.12	-1529.6	1552.3	342.45	-1659.8	1284	348.58
3	0.0083333	NaN	NaN	NaN	-1460.7	1504.9	498.91	-1482.7	1517.9	168.17	-1479.8	1805.9	304.63	NaN	NaN	NaN	NaN	NaN	NaN	-1663.3	1015.6	373.35	-1659.2	1012.6	280.79	-1565.2	922.32	532.92	-1522.3	918.28	141.62	-1557.7	1083	507.11	-1540.9	1072.8	172.05	-1672.3	980.17	341.02	-1552.4	695.6	515.13	NaN	NaN	NaN	-1580	612.1	492.09	NaN	NaN	NaN	NaN	NaN	NaN	NaN	NaN	NaN	-1774.7	315.1	457.97	-1734.6	231.27	455.25	-1796.7	244.1	438.92	NaN	NaN	NaN	-1778.4	136.23	435.67	-1760.1	160.39	347.75	-1858.5	94.087	372.73	-1848.2	58.966	347.34	-1854.2	66.75	410.89	-1694.2	42.135	475.91	-1650.1	42.983	358.06	-1588	56.374	407.29	-1439.9	689.05	148.19	-1340.9	646.62	179.05	-1399.9	603.68	165.86	-1372.1	730.88	162.05	-1355.5	527.44	175.17	-1347	318.13	173.55	-1263.9	287.91	175.89	-1321.9	250.31	191.21	-1289.8	353.25	163.79	-1242.9	129.67	198.14	-1214.3	159.07	282.11	NaN	NaN	NaN	-1253.7	45.243	285.97	-1266.9	38.601	227.02	-1099.4	99.549	158.52	-1075.6	123.18	272.69	-1025.7	157.16	214.01	-1524.1	1551.5	341.49	-1654.3	1283.3	348.1
4	0.0125	NaN	NaN	NaN	-1455.1	1504.3	497.99	-1477.1	1516.8	167.2	-1474.3	1805.1	303.22	NaN	NaN	NaN	NaN	NaN	NaN	-1657.5	1014.7	372.99	-1653.3	1011.7	280.43	-1559.5	921.49	532.63	-1515.8	917.48	141.62	-1552.2	1082.2	506.86	-1534.9	1071.9	171.75	-1666.4	979.26	340.64	-1546.8	694.76	514.93	NaN	NaN	NaN	-1574.2	611.25	492.03	NaN	NaN	NaN	NaN	NaN	NaN	NaN	NaN	NaN	-1770.7	315.97	457.58	-1731.4	231.89	455.04	-1793.2	245.13	438.39	NaN	NaN	NaN	-1776.9	137.36	435.45	-1758.4	161.42	347.55	-1857.6	96.329	372.44	-1847.6	61.143	347	-1853.8	68.975	410.58	-1694.2	42.198	475.85	-1649.9	42.851	358.07	-1587.8	55.977	407.4	-1433.4	688.56	148.76	-1334.2	646.16	179.32	-1393.4	603.21	166.47	-1365.5	730.36	162.17	-1349.2	526.79	175.53	-1343.2	317.5	173.73	-1260.5	286.06	176.35	-1319.2	249.25	191.33	-1285.5	351.75	164.28	-1242.1	127.91	198.28	-1213.1	156.61	282.42	NaN	NaN	NaN	-1254	43.875	286.01	-1267.1	37.701	226.84	-1098.8	95.986	159.04	-1074.9	118.99	273.3	-1024.5	152.51	214.86	-1518.4	1550.8	340.49	-1648.6	1282.5	347.58
5	0.016667	NaN	NaN	NaN	-1449.3	1503.7	497.04	-1471.3	1515.7	166.19	-1468.7	1804.3	301.78	NaN	NaN	NaN	NaN	NaN	NaN	-1651.5	1013.8	372.6	-1647.1	1010.8	280.05	-1553.6	920.66	532.32	-1509	916.68	141.62	-1546.5	1081.4	506.57	-1528.7	1071.1	171.43	-1660.4	978.36	340.22	-1540.9	693.93	514.74	NaN	NaN	NaN	-1568.2	610.4	492	NaN	NaN	NaN	NaN	NaN	NaN	NaN	NaN	NaN	-1766.4	316.94	457.21	-1728	232.6	454.86	-1789.7	246.31	437.88	NaN	NaN	NaN	-1775.4	138.64	435.24	-1756.6	162.55	347.36	-1856.6	98.801	372.15	-1846.9	63.557	346.64	-1853.3	71.428	410.25	-1694.2	42.298	475.79	-1649.8	42.725	358.09	-1587.6	55.59	407.51	-1426.8	688.06	149.31	-1327.5	645.68	179.58	-1386.8	602.73	167.08	-1358.8	729.81	162.27	-1342.8	526.14	175.87	-1339.4	316.88	173.92	-1257	284.24	176.8	-1316.3	248.21	191.47	-1281.2	350.26	164.76	-1241.1	126.18	198.42	-1211.8	154.18	282.72	NaN	NaN	NaN	-1254.2	42.598	286.05	-1267.2	36.891	226.69	-1098.1	92.403	159.54	-1074	114.77	273.87	-1023.1	147.82	215.66	-1512.6	1550	339.46	-1642.8	1281.7	347.03
6	0.020833	NaN	NaN	NaN	-1443.5	1503.1	496.06	-1465.4	1514.5	165.14	-1463	1803.5	300.31	NaN	NaN	NaN	NaN	NaN	NaN	-1645.4	1012.9	372.18	-1640.9	1009.9	279.63	-1547.6	919.84	531.99	-1502.1	915.91	141.6	-1540.6	1080.7	506.26	-1522.3	1070.2	171.09	-1654.2	977.49	339.77	-1534.8	693.13	514.56	NaN	NaN	NaN	-1562.1	609.57	491.99	NaN	NaN	NaN	NaN	NaN	NaN	NaN	NaN	NaN	-1762	318.02	456.84	-1724.6	233.42	454.7	-1786	247.65	437.4	NaN	NaN	NaN	-1773.7	140.08	435.04	-1754.5	163.8	347.2	-1855.5	101.52	371.84	-1846.1	66.227	346.27	-1852.7	74.128	409.91	-1694.3	42.445	475.72	-1649.6	42.61	358.11	-1587.4	55.217	407.62	-1420.2	687.56	149.84	-1320.7	645.18	179.82	-1380.2	602.23	167.68	-1352.1	729.25	162.34	-1336.3	525.48	176.2	-1335.5	316.26	174.13	-1253.4	282.45	177.25	-1313.4	247.2	191.62	-1276.8	348.8	165.23	-1240.1	124.49	198.56	-1210.4	151.81	283.01	NaN	NaN	NaN	-1254.3	41.432	286.1	-1267.3	36.187	226.55	-1097.4	88.83	160.01	-1073.1	110.58	274.4	-1021.7	143.11	216.39	-1506.6	1549.3	338.39	-1636.8	1281	346.45
7	0.025	NaN	NaN	NaN	-1437.5	1502.6	495.05	-1459.4	1513.5	164.07	-1457.2	1802.7	298.82	NaN	NaN	NaN	NaN	NaN	NaN	-1639.2	1012.1	371.73	-1634.5	1009.2	279.18	-1541.5	919.05	531.63	-1495.1	915.17	141.58	-1534.6	1079.9	505.93	-1515.8	1069.4	170.73	-1647.9	976.64	339.29	-1528.4	692.35	514.4	NaN	NaN	NaN	-1555.8	608.75	492.01	NaN	NaN	NaN	NaN	NaN	NaN	NaN	NaN	NaN	-1757.3	319.22	456.49	-1721.1	234.34	454.57	-1782.2	249.18	436.95	-1696.2	303.9	470.99	-1771.9	141.7	434.85	-1752.3	165.17	347.07	-1854.1	104.51	371.52	-1845.1	69.177	345.87	-1852	77.094	409.57	-1694.3	42.65	475.65	-1649.5	42.511	358.14	-1587.2	54.864	407.73	-1413.5	687.07	150.35	-1314	644.65	180.03	-1373.6	601.73	168.26	-1345.4	728.68	162.39	-1329.9	524.83	176.51	-1331.6	315.66	174.34	-1249.8	280.72	177.67	-1310.4	246.24	191.77	-1272.4	347.38	165.68	-1238.9	122.86	198.69	-1208.8	149.52	283.29	NaN	NaN	NaN	-1254.4	40.395	286.16	-1267.4	35.599	226.45	-1096.6	85.297	160.45	-1072.1	106.44	274.87	-1020.2	138.41	217.04	-1500.6	1548.6	337.3	-1630.7	1280.3	345.84
8	0.029167	NaN	NaN	NaN	-1431.4	1502.1	494.03	-1453.3	1512.4	162.98	-1451.4	1802	297.33	NaN	NaN	NaN	NaN	NaN	NaN	-1632.9	1011.2	371.25	-1628.1	1008.4	278.71	-1535.3	918.28	531.24	-1488.1	914.48	141.54	-1528.6	1079.2	505.56	-1509.2	1068.7	170.35	-1641.5	975.83	338.79	-1521.9	691.61	514.26	NaN	NaN	NaN	-1549.3	607.95	492.07	NaN	NaN	NaN	-1594.9	516.73	473.23	NaN	NaN	NaN	-1752.4	320.54	456.16	-1717.5	235.39	454.47	-1778.2	250.89	436.54	-1691.8	305.31	471.19	-1769.9	143.51	434.69	-1749.9	166.66	346.98	-1852.5	107.78	371.2	-1844	72.425	345.45	-1851.2	80.346	409.21	-1694.3	42.925	475.58	-1649.3	42.436	358.18	-1587	54.535	407.83	-1406.9	686.58	150.81	-1307.3	644.11	180.2	-1367	601.23	168.8	-1338.6	728.09	162.39	-1323.5	524.2	176.78	-1327.6	315.09	174.55	-1246.1	279.07	178.08	-1307.3	245.33	191.93	-1267.9	346.02	166.1	-1237.6	121.31	198.81	-1207.1	147.34	283.54	NaN	NaN	NaN	-1254.3	39.497	286.22	-1267.3	35.132	226.37	-1095.7	81.831	160.85	-1071	102.4	275.3	-1018.6	133.77	217.62	-1494.4	1548	336.19	-1624.5	1279.6	345.19
